HIERARCHY
ROOT Hips
{
	OFFSET 0.000000 0.000000 0.000000
	CHANNELS 6 Xposition Yposition Zposition Zrotation Yrotation Xrotation 
	JOINT LeftUpLeg_virtual
	{
		OFFSET 0.000000 0.000000 0.000000
		CHANNELS 3 Zrotation Yrotation Xrotation
		JOINT LeftUpLeg
		{
			OFFSET 10.205400 -3.823500 0.155100
			CHANNELS 3 Zrotation Yrotation Xrotation
			JOINT LeftLeg
			{
				OFFSET 0.708757 -12.982077 0.567790
				CHANNELS 3 Zrotation Yrotation Xrotation
				JOINT LeftFoot
				{
					OFFSET -0.708756 -10.717838 -2.184338
					CHANNELS 3 Zrotation Yrotation Xrotation
					JOINT LeftToeBase
					{
						OFFSET 0.108149 -7.191104 7.560241
						CHANNELS 3 Zrotation Yrotation Xrotation
						End Site
						{
							OFFSET 0.000000 0.000000 0.000000
						}
					}
				}
			}
		}
	}
	JOINT RightUpLeg_virtual
	{
		OFFSET 0.000000 0.000000 0.000000
		CHANNELS 3 Zrotation Yrotation Xrotation
		JOINT RightUpLeg
		{
			OFFSET -10.205400 -3.823500 0.005500
			CHANNELS 3 Zrotation Yrotation Xrotation
			JOINT RightLeg
			{
				OFFSET -0.708756 -12.982134 0.610632
				CHANNELS 3 Zrotation Yrotation Xrotation
				JOINT RightFoot
				{
					OFFSET 0.708754 -10.717769 -1.945823
					CHANNELS 3 Zrotation Yrotation Xrotation
					JOINT RightToeBase
					{
						OFFSET -0.108140 -7.191069 7.372968
						CHANNELS 3 Zrotation Yrotation Xrotation
						End Site
						{
							OFFSET 0.000000 0.000000 0.000000
						}
					}
				}
			}
		}
	}
	JOINT Spine_virtual
	{
		OFFSET 0.000000 0.000000 0.000000
		CHANNELS 3 Zrotation Yrotation Xrotation
		JOINT Spine
		{
			OFFSET 0.000000 6.876099 0.125700
			CHANNELS 3 Zrotation Yrotation Xrotation
			JOINT Spine1
			{
				OFFSET 0.000000 8.022060 0.146608
				CHANNELS 3 Zrotation Yrotation Xrotation
				JOINT Spine2
				{
					OFFSET 0.000000 9.168068 0.167552
					CHANNELS 3 Zrotation Yrotation Xrotation
					JOINT Neck_virtual
					{
						OFFSET 0.000000 0.000000 0.000000
						CHANNELS 3 Zrotation Yrotation Xrotation
						JOINT Neck
						{
							OFFSET 0.000000 10.314075 0.188496
							CHANNELS 3 Zrotation Yrotation Xrotation
							JOINT Head
							{
								OFFSET 0.000000 7.643700 -2.377400
								CHANNELS 3 Zrotation Yrotation Xrotation
								End Site
								{
									OFFSET 0.000000 0.000000 0.000000
								}
							}
						}
					}
					JOINT LeftShoulder_virtual
					{
						OFFSET 0.000000 0.000000 0.000000
						CHANNELS 3 Zrotation Yrotation Xrotation
						JOINT LeftShoulder
						{
							OFFSET 4.392200 8.824978 0.174984
							CHANNELS 3 Zrotation Yrotation Xrotation
							JOINT LeftArm
							{
								OFFSET 8.771219 -2.981674 -0.026999
								CHANNELS 3 Zrotation Yrotation Xrotation
								JOINT LeftForeArm
								{
									OFFSET 8.512804 0.000000 -0.000000
									CHANNELS 3 Zrotation Yrotation Xrotation
									JOINT LeftHand
									{
										OFFSET 18.484802 0.000000 -0.000000
										CHANNELS 3 Zrotation Yrotation Xrotation
										End Site
										{
											OFFSET 0.000000 0.000000 0.000000
										}
									}
								}
							}
						}
					}
					JOINT RightShoulder_virtual
					{
						OFFSET 0.000000 0.000000 0.000000
						CHANNELS 3 Zrotation Yrotation Xrotation
						JOINT RightShoulder
						{
							OFFSET -4.392200 8.824993 0.141379
							CHANNELS 3 Zrotation Yrotation Xrotation
							JOINT RightArm
							{
								OFFSET -8.771282 -2.981682 -0.094208
								CHANNELS 3 Zrotation Yrotation Xrotation
								JOINT RightForeArm
								{
									OFFSET -8.494598 0.000000 0.000000
									CHANNELS 3 Zrotation Yrotation Xrotation
									JOINT RightHand
									{
										OFFSET -18.483803 0.000000 0.000001
										CHANNELS 3 Zrotation Yrotation Xrotation
										End Site
										{
											OFFSET 0.000000 0.000000 0.000000
										}
									}
								}
							}
						}
					}
				}
			}
		}
	}
}
MOTION
Frames: 5
Frame Time: 0.033333
6.234556 36.592602 -11.128030 179.930993 0.041515 179.903672 -1.398530 -2.685634 8.844175 -0.613989 -3.527833 -16.253554 8.134620 6.803360 14.879905 -7.044939 -0.661993 9.030789 0.000000 0.000000 0.000000 3.081928 -1.753913 7.471089 -5.280505 3.971841 -12.920664 -8.218739 2.829398 15.757573 9.378613 4.284831 8.139904 0.000000 0.000000 0.000000 1.759309 0.529848 -3.060622 -5.567721 2.489112 -2.824802 -0.672898 -2.933800 3.501074 0.000202 0.011583 0.013258 -1.312013 -0.970640 6.181949 1.352448 -3.509003 -1.277960 0.000000 0.000000 0.000000 0.256939 -0.088131 3.677297 8.821182 2.833788 -4.423240 -3.553262 22.038428 -36.739806 -1.711961 -43.882678 -7.077816 0.000000 0.000000 0.000000 -3.410834 0.640231 3.059097 6.790470 -15.966141 -10.567360 13.697979 -26.175160 -31.297921 -2.995819 36.157983 -4.914021 0.000000 0.000000 0.000000 
6.238619 36.602406 -11.148737 179.909478 -0.138859 179.907934 -1.189033 -2.504939 8.764481 -0.878397 -3.706115 -16.405242 7.717724 7.149657 14.529049 -7.488142 -1.038746 8.544368 0.000000 0.000000 0.000000 3.055795 -1.902442 7.464908 -5.344139 4.014951 -12.951778 -8.453813 2.646232 15.934264 9.119143 4.059087 8.210794 0.000000 0.000000 0.000000 1.736421 0.464301 -3.063872 -5.586898 2.441873 -2.836194 -0.677713 -2.980620 3.498174 0.028661 -0.039167 0.014031 -1.369993 -0.909403 6.160878 1.324057 -3.530707 -1.305122 0.000000 0.000000 0.000000 0.209559 -0.096607 3.679756 8.769701 2.804105 -4.333878 -3.469839 22.012566 -36.746008 -1.683228 -43.822132 -7.111680 0.000000 0.000000 0.000000 -3.429799 0.628719 3.070319 6.799883 -15.960098 -10.610737 13.672514 -26.159449 -31.260915 -3.003199 36.175544 -4.907391 0.000000 0.000000 0.000000 
6.240638 36.602386 -11.189740 179.954816 -0.259534 179.917865 -1.138306 -2.595937 8.793237 -0.860971 -3.724520 -16.387912 7.708495 7.126511 14.624507 -7.519319 -1.072020 8.513283 0.000000 0.000000 0.000000 3.108456 -2.018188 7.508376 -5.326092 4.037535 -12.917559 -8.472616 2.633394 15.978476 9.088179 4.029324 8.188513 0.000000 0.000000 0.000000 1.806201 0.408413 -3.071080 -5.551831 2.429152 -2.864328 -0.657447 -3.009686 3.490498 0.005346 -0.072390 -0.029288 -1.345166 -0.877212 6.247899 1.365227 -3.510417 -1.247725 0.000000 0.000000 0.000000 0.185674 -0.062574 3.705771 8.778003 2.901247 -4.437519 -3.610476 22.083530 -36.779824 -1.781360 -43.888439 -7.004482 0.000000 0.000000 0.000000 -3.446545 0.645617 3.095558 6.798981 -15.931676 -10.555561 13.719319 -26.168017 -31.308272 -3.088856 36.168017 -4.984904 0.000000 0.000000 0.000000 
6.237961 36.603283 -11.235492 179.934299 -0.177806 179.844345 -1.176983 -2.494456 8.901806 -0.850146 -3.733070 -16.340915 7.712619 7.213791 14.677711 -7.549031 -1.112699 8.412899 0.000000 0.000000 0.000000 3.098172 -1.877250 7.510053 -5.316969 3.893971 -12.717565 -8.456175 2.698811 16.027346 9.066223 4.023779 7.992912 0.000000 0.000000 0.000000 1.847605 0.441084 -3.052609 -5.656177 2.488785 -2.871746 -0.693191 -2.961490 3.508655 0.023568 -0.014339 -0.027940 -1.337410 -0.924433 6.205813 1.351437 -3.512451 -1.197847 0.000000 0.000000 0.000000 0.216443 -0.087587 3.708609 8.827374 2.926080 -4.418392 -3.711541 22.125411 -36.803846 -1.734332 -43.924854 -7.040868 0.000000 0.000000 0.000000 -3.418985 0.615219 3.068694 6.797192 -15.877842 -10.578063 13.765079 -26.170126 -31.280333 -3.061527 36.234744 -4.923122 0.000000 0.000000 0.000000 
6.234868 36.602654 -11.285454 179.931211 -0.341434 179.935200 -1.175392 -2.616879 8.886050 -0.848481 -3.784134 -16.361144 7.704348 7.280060 14.743354 -7.596187 -1.151626 8.379624 0.000000 0.000000 0.000000 3.103998 -1.933054 7.511279 -5.322881 3.905045 -12.694242 -8.479571 2.678308 16.098961 9.003879 3.985281 7.869634 0.000000 0.000000 0.000000 1.804702 0.374497 -3.149461 -5.605631 2.463778 -2.955992 -0.661796 -3.000719 3.508917 0.022400 -0.049307 0.001740 -1.384480 -0.895210 6.233485 1.317688 -3.524211 -1.083479 0.000000 0.000000 0.000000 0.174884 -0.075333 3.692210 8.798521 3.020423 -4.336342 -3.860633 22.221699 -37.025704 -1.775185 -43.960614 -7.015762 0.000000 0.000000 0.000000 -3.444731 0.605444 3.090489 6.817211 -15.841420 -10.663796 13.741831 -26.138366 -31.339797 -2.970081 36.222016 -4.750691 0.000000 0.000000 0.000000 
